<svg width="149" height="70" viewBox="0 0 149 70" fill="none" xmlns="http://www.w3.org/2000/svg">
<path d="M30.3897 34.7332C30.3897 41.7597 26.0252 45.8319 20.5293 45.8319C15.0333 45.8319 10.5879 41.6799 10.5879 34.7332C10.5879 27.7865 15.0332 23.7144 20.5293 23.7144C26.0253 23.7144 30.3897 27.7865 30.3897 34.7332ZM10.7495 69.5461V50.5426C12.6893 53.1776 16.7305 55.3335 22.2265 55.3335C33.461 55.3335 40.9778 46.5505 40.9778 34.6532C40.9778 22.9958 34.2693 14.2127 22.6306 14.2127C16.6497 14.2127 12.2044 16.8476 10.4263 19.8818V15.091H0V69.5461H10.7495Z" fill="white"></path>
<path d="M58.901 13.8932C47.0199 13.8932 38.0485 22.5965 38.0485 34.7332C38.0485 46.79 47.0199 55.5729 58.901 55.5729C70.7821 55.5729 79.7536 46.79 79.7536 34.7332C79.7536 22.5965 70.7821 13.8932 58.901 13.8932ZM58.901 45.9116C53.6476 45.9116 48.7982 42.0789 48.7982 34.7332C48.7982 27.3074 53.6476 23.5547 58.901 23.5547C64.1547 23.5547 69.0041 27.3074 69.0041 34.7332C69.0041 42.159 64.1547 45.9116 58.901 45.9116Z" fill="white"></path>
<path d="M116.473 43.4364C116.958 47.9076 121.08 55.5729 133.042 55.5729C143.469 55.5729 148.48 49.0256 148.48 42.6377C148.48 36.889 144.519 32.1779 136.679 30.5812L131.022 29.3835C128.839 28.9842 127.385 27.7865 127.385 25.8701C127.385 23.6345 129.648 21.9577 132.476 21.9577C137.002 21.9577 138.7 24.912 139.023 27.2276L147.995 25.2316C147.51 20.9996 143.711 13.8932 132.396 13.8932C123.828 13.8932 117.524 19.722 117.524 26.7486C117.524 32.258 121 36.809 128.678 38.4858L133.931 39.6835C137.002 40.3224 138.215 41.7596 138.215 43.5161C138.215 45.5923 136.518 47.4285 132.961 47.4285C128.274 47.4285 125.93 44.554 125.687 41.4403L116.473 43.4364Z" fill="white"></path>
<path d="M87.5483 34.8129C87.5483 27.7865 91.9127 23.7143 97.4087 23.7143C102.905 23.7143 107.35 27.8662 107.35 34.8129C107.35 41.7596 102.905 45.8318 97.4087 45.8318C91.9127 45.8318 87.5483 41.7596 87.5483 34.8129ZM107.188 0V19.0035C105.249 16.3686 101.207 14.2127 95.7114 14.2127C84.4769 14.2127 76.9602 22.9957 76.9602 34.893C76.9602 46.5504 83.6686 55.3334 95.3073 55.3334C101.288 55.3334 105.734 52.6985 107.512 49.6644V54.4551H117.938V0H107.188Z" fill="white"></path>
</svg>