<svg width="150" height="42" viewBox="0 0 150 42" fill="none" xmlns="http://www.w3.org/2000/svg">
<path d="M5.571 6.04492H0V25.5425H5.571V6.04492Z" fill="#FFFFFF"/>
<path d="M22.2824 0.472656H5.57129V6.04174H22.2708V17.1837H27.8418V6.04174L22.2824 0.4842V0.472656Z" fill="#FFFFFF"/>
<path d="M16.6998 31.112L22.2824 25.541H5.57129V31.112H16.6998Z" fill="#FFFFFF"/>
<path d="M145.344 31.041V37.4639L146.588 37.2062C146.63 37.7928 147.151 38.0658 147.696 38.0216C148.405 37.9658 148.569 37.2043 147.807 36.9812C146.898 36.7159 145.717 36.687 145.494 35.5043C145.23 34.1121 146.553 33.3506 147.782 33.4294C148.686 33.4871 149.507 34.039 149.649 34.9736L148.428 35.2447L148.407 35.2217C148.332 34.6659 147.711 34.3986 147.213 34.5774C146.669 34.7717 146.671 35.3755 147.263 35.537C147.8 35.6851 148.34 35.7005 148.844 35.9736C150.155 36.6832 149.911 38.4447 148.584 38.9658C147.526 39.3831 145.944 39.0946 145.455 37.9601L145.344 37.6505L145.386 38.9812H143.984C143.944 38.7793 143.925 38.5716 143.927 38.3658C143.8 38.5543 143.648 38.7081 143.454 38.8293C142.863 39.1946 142.054 39.1716 141.419 38.9331C140.731 38.6754 140.181 38.0966 139.934 37.4062L139.807 37.6735C139.127 38.96 137.563 39.4446 136.217 38.9562C135.508 38.6985 134.902 38.1351 134.64 37.4216C134.619 37.4216 134.619 37.4428 134.611 37.4562C134.388 37.8966 134.286 38.1735 133.896 38.5158C133.046 39.26 131.481 39.3716 130.696 38.4831C130.688 38.4735 130.696 38.4562 130.663 38.4639V41.0523H129.19V33.5852H130.621V34.2294C130.7 34.1467 130.758 34.0505 130.842 33.9717C131.442 33.4102 132.515 33.3486 133.256 33.6332C133.921 33.8871 134.413 34.4448 134.633 35.1178C134.931 34.4255 135.483 33.8794 136.192 33.6159C137.64 33.0794 139.348 33.6775 139.927 35.1467C140.242 34.3178 140.938 33.6755 141.819 33.5063C142.519 33.3717 143.473 33.4717 143.896 34.1179V31.0429H145.34L145.344 31.041ZM137.173 34.7486C135.4 34.8755 135.481 37.8351 137.298 37.8216C139.173 37.8081 139.121 34.6101 137.173 34.7486ZM142.423 34.764C141.448 34.8505 141.09 35.8332 141.259 36.6909C141.538 38.112 143.444 38.2024 143.84 36.8255C144.136 35.7986 143.615 34.6582 142.423 34.764ZM131.837 34.7775C130.344 34.9217 130.235 37.3678 131.629 37.7524C132.398 37.9658 133.115 37.5428 133.31 36.7793C133.575 35.739 133.011 34.664 131.837 34.7775Z" fill="#FFFFFF"/>
<path d="M117.422 33.7085C117.784 33.5008 118.197 33.3969 118.658 33.3969C119.155 33.3969 119.601 33.5143 119.997 33.7489C120.393 33.9835 120.705 34.3142 120.931 34.7392C121.158 35.1642 121.274 35.6584 121.274 36.2219C121.274 36.7853 121.16 37.2738 120.931 37.7103C120.703 38.1468 120.389 38.4853 119.991 38.7256C119.593 38.966 119.149 39.0872 118.658 39.0872C118.168 39.0872 117.764 38.9833 117.407 38.7756C117.047 38.568 116.778 38.3026 116.597 37.9814V38.9968H115.682V31.5547H116.597V34.5104C116.785 34.1815 117.06 33.9142 117.422 33.7066V33.7085ZM120.087 35.1373C119.92 34.8296 119.693 34.595 119.408 34.4335C119.124 34.2719 118.81 34.1931 118.468 34.1931C118.126 34.1931 117.822 34.2758 117.537 34.4392C117.253 34.6046 117.024 34.8411 116.853 35.1527C116.682 35.4642 116.597 35.8257 116.597 36.2334C116.597 36.6411 116.682 37.0122 116.853 37.3238C117.024 37.6353 117.251 37.8738 117.537 38.0372C117.822 38.2026 118.132 38.2833 118.468 38.2833C118.805 38.2833 119.124 38.2007 119.408 38.0372C119.693 37.8738 119.92 37.6353 120.087 37.3238C120.255 37.0122 120.339 36.6449 120.339 36.2219C120.339 35.7988 120.255 35.445 120.087 35.1354V35.1373Z" fill="#FFFFFF"/>
<path d="M126.675 33.4883L123.356 41.5938H122.41L123.496 38.9381L121.273 33.4863H122.289L124.02 37.9516L125.729 33.4863H126.675V33.4883Z" fill="#FFFFFF"/>
<path d="M85.4507 8.86374L85.1527 6.7734H82.8643V24.7248H85.4526V12.9117C85.4526 11.0618 86.9526 9.35987 88.8026 9.35987H92.1352V6.77148H88.5583C87.1526 6.77148 85.9526 7.63684 85.4526 8.86181L85.4507 8.86374Z" fill="#FFFFFF"/>
<path d="M76.1719 0.0292969C74.7912 0.0292969 73.6719 1.1485 73.6719 2.52923V6.79257L71.0566 7.51371V9.36174H73.6719V24.7498H76.2584V9.36174H79.8429V6.77334H76.2584V3.32536C76.2584 2.93306 76.5757 2.61576 76.968 2.61576H80.391V0.0292969H76.1719Z" fill="#FFFFFF"/>
<path d="M101.067 6.76758H95.1592V9.28289H100.828C102.721 9.28289 104.255 10.8213 104.255 12.7097V13.8732H106.77V12.4713C106.77 9.32136 104.219 6.76758 101.067 6.76758Z" fill="#FFFFFF"/>
<path d="M95.4655 14.675C94.6617 15.1615 93.9906 15.848 93.5175 16.6653C93.0387 17.4903 92.7637 18.446 92.7637 19.4672V19.6345C92.7637 19.846 92.7771 20.0556 92.8041 20.2652C92.9964 21.8094 93.9213 23.2036 95.2636 23.9863C96.8789 24.9305 99.0981 24.8459 100.852 24.3766C101.487 24.2074 102.1 23.9478 102.673 23.6247C102.975 23.4517 103.267 23.2594 103.546 23.0498C103.66 22.9651 104.258 22.5844 104.258 22.4459L104.663 24.4709H106.773V16.3942H104.258C104.258 17.6287 103.871 18.771 103.211 19.7095C103.015 19.9787 102.806 20.2306 102.573 20.4633C101.352 21.6844 99.6366 22.2632 97.9212 22.144C96.4751 22.044 95.2828 20.9652 95.2828 19.4672C95.2828 19.2999 95.2963 19.1383 95.3251 18.9806C95.4251 18.3268 95.7328 17.7403 96.179 17.2961C96.3463 17.1288 96.5328 16.9768 96.7328 16.8615C97.2001 16.5615 97.7539 16.3942 98.3501 16.3942H104.256V13.875H98.3501C97.2943 13.875 96.3078 14.1673 95.4636 14.6769L95.4655 14.675Z" fill="#FFFFFF"/>
<path d="M55.4736 19.0133C55.4736 19.0998 55.4756 19.1844 55.4794 19.271C55.4813 19.3287 55.4832 19.3883 55.4909 19.446C55.4929 19.4825 55.4948 19.519 55.5006 19.5556C55.5025 19.5979 55.5063 19.6383 55.514 19.6806C55.5198 19.7402 55.5275 19.7998 55.539 19.8594C55.539 19.8748 55.5409 19.8883 55.5448 19.9017C55.5544 19.9767 55.5679 20.0536 55.5832 20.1267C55.5871 20.1498 55.5929 20.169 55.5967 20.1882C55.6121 20.2729 55.6332 20.3556 55.6544 20.4382C55.6717 20.5113 55.6929 20.5844 55.7159 20.6594C55.8621 21.1517 56.0736 21.6132 56.3409 22.0401C56.3678 22.0824 56.3948 22.1228 56.4236 22.1651C56.4851 22.2651 56.5563 22.3632 56.6313 22.4574C56.6774 22.5228 56.7274 22.5843 56.7774 22.6439C56.8294 22.7093 56.8813 22.7709 56.939 22.8305C57.0044 22.9055 57.0717 22.9766 57.1447 23.0478C57.2082 23.1132 57.2755 23.1747 57.3428 23.2362C57.4044 23.292 57.4678 23.3478 57.5313 23.4016C58.1813 23.942 58.9543 24.3439 59.8024 24.5497C59.8639 24.567 59.9254 24.5804 59.987 24.5939C60.0158 24.5997 60.0466 24.6074 60.0754 24.6112C60.1447 24.6247 60.2158 24.6381 60.287 24.6458C60.3004 24.6497 60.3158 24.6535 60.3312 24.6535C60.3889 24.6651 60.4485 24.6708 60.51 24.6785C60.5523 24.6862 60.5927 24.6901 60.635 24.692C60.6716 24.6958 60.7062 24.6977 60.7446 24.7016C60.8023 24.7074 60.862 24.7112 60.9196 24.7131C61.0043 24.717 61.0908 24.7208 61.1773 24.7208H67.0849V22.2055H61.4158C59.5235 22.2055 57.9889 20.6671 57.9889 18.7787V17.6152H55.4736V19.0171V19.0133Z" fill="#FFFFFF"/>
<path d="M67.907 8.19915C67.7685 8.06646 67.6205 7.94146 67.4666 7.82608C67.3128 7.70877 67.1512 7.60109 66.9839 7.50301C65.3686 6.55881 63.1494 6.64342 61.3956 7.11264C61.2168 7.15879 61.0418 7.21456 60.8668 7.27802C60.7514 7.32033 60.636 7.36263 60.5226 7.40879C60.3514 7.47801 60.1822 7.55301 60.0149 7.6357H60.013C59.8668 7.70685 59.7188 7.7857 59.5764 7.86454C59.2745 8.03761 58.9822 8.22991 58.7034 8.43952C58.6476 8.48183 58.4707 8.59721 58.3053 8.72221C58.2861 8.73759 58.2649 8.75298 58.2457 8.76837C58.2053 8.79913 58.1669 8.82798 58.1342 8.85875C58.1169 8.87413 58.1015 8.88951 58.088 8.90297C58.0726 8.91644 58.0592 8.92989 58.0476 8.94336C58.013 8.98374 57.9919 9.01643 57.9919 9.04143C57.9919 9.04143 55.915 10.4645 55.4766 15.0932L57.9919 15.0951V17.6124H63.8975C64.7552 17.6124 65.5667 17.4201 66.2936 17.0758C66.4628 16.9951 66.6243 16.9085 66.7839 16.8124C66.8839 16.7508 66.9839 16.6874 67.0801 16.6182C67.3666 16.4162 67.6358 16.1893 67.882 15.9393C67.9224 15.897 67.9647 15.8547 68.0051 15.8124C68.0839 15.7259 68.1589 15.6374 68.2339 15.547C68.307 15.4528 68.3781 15.3605 68.4474 15.2663C68.5474 15.122 68.6435 14.972 68.732 14.8182C69.2108 13.9932 69.4858 13.0375 69.4858 12.0164V11.8491C69.4858 11.6375 69.4723 11.4279 69.4454 11.2183C69.3031 10.0606 68.7474 8.98759 67.9089 8.19338L67.907 8.19915ZM66.0647 14.1932L66.0244 14.2336C65.9628 14.2932 65.8974 14.349 65.8301 14.4028C65.8071 14.4221 65.784 14.4394 65.7628 14.4567C65.6955 14.5105 65.6244 14.5567 65.5532 14.6009C65.5398 14.6105 65.5244 14.6182 65.5109 14.6278C65.0436 14.9278 64.4898 15.0951 63.8936 15.0951H57.988C57.988 13.8605 58.3746 12.7183 59.0342 11.7798C59.2303 11.5106 59.438 11.2606 59.6726 11.0279C60.8937 9.8068 62.611 9.22796 64.3263 9.34719C64.3667 9.34912 64.409 9.35488 64.4494 9.35873C64.5052 9.36258 64.5609 9.37027 64.6167 9.38181C64.7321 9.39912 64.8455 9.42604 64.9551 9.45681C64.9782 9.46065 64.9994 9.46834 65.0225 9.47411C65.0513 9.48373 65.0801 9.49142 65.109 9.50296C65.1782 9.52603 65.2475 9.55104 65.3128 9.57988C65.3378 9.5895 65.3609 9.59911 65.384 9.61257C65.4513 9.64142 65.5148 9.67218 65.5782 9.70872C65.6532 9.74911 65.7282 9.79334 65.7955 9.84141C65.9378 9.93564 66.0686 10.0414 66.1859 10.1606C66.6666 10.6299 66.9628 11.2741 66.9628 12.0221C66.9628 12.0644 66.9628 12.1067 66.9609 12.149C66.957 12.2087 66.9513 12.2721 66.9474 12.3317C66.9416 12.3913 66.932 12.449 66.9205 12.5106C66.9128 12.551 66.907 12.5933 66.9013 12.6336C66.8763 12.7567 66.8455 12.874 66.8109 12.9875C66.7705 13.1029 66.7263 13.2163 66.6782 13.3259C66.6263 13.4355 66.5705 13.5394 66.509 13.6394C66.4243 13.7759 66.3301 13.9048 66.2282 14.0221C66.1763 14.0817 66.1244 14.1394 66.0686 14.1951L66.0647 14.1932Z" fill="#FFFFFF"/>
<path d="M135.985 19.0094C135.985 19.0959 135.987 19.1805 135.991 19.2671C135.993 19.3248 135.995 19.3844 136.003 19.4421C136.005 19.4786 136.006 19.5151 136.012 19.5517C136.014 19.594 136.018 19.6344 136.026 19.6767C136.031 19.7363 136.039 19.7959 136.051 19.8555C136.051 19.8709 136.053 19.8843 136.057 19.8978C136.066 19.9728 136.08 20.0497 136.095 20.1228C136.099 20.1459 136.105 20.1651 136.108 20.1843C136.124 20.2689 136.145 20.3516 136.166 20.4343C136.183 20.5074 136.205 20.5805 136.228 20.6555C136.374 21.1478 136.585 21.6093 136.853 22.0362C136.88 22.0785 136.906 22.1189 136.935 22.1612C136.997 22.2612 137.068 22.3593 137.143 22.4535C137.189 22.5189 137.239 22.5804 137.289 22.64C137.341 22.7054 137.393 22.767 137.451 22.8266C137.516 22.9016 137.583 22.9727 137.656 23.0439C137.72 23.1093 137.787 23.1708 137.855 23.2323C137.916 23.2881 137.98 23.3439 138.043 23.3977C138.693 23.9381 139.466 24.34 140.314 24.5458C140.376 24.5631 140.437 24.5765 140.499 24.59C140.528 24.5958 140.558 24.6034 140.587 24.6073C140.656 24.6208 140.728 24.6342 140.799 24.6419C140.812 24.6458 140.828 24.6496 140.843 24.6496C140.901 24.6611 140.96 24.6669 141.022 24.6746C141.064 24.6823 141.104 24.6861 141.147 24.6881C141.183 24.6919 141.218 24.6938 141.256 24.6977C141.314 24.7035 141.374 24.7073 141.431 24.7092C141.516 24.7131 141.603 24.7169 141.689 24.7169H147.597V22.2016H141.927C140.035 22.2016 138.501 20.6632 138.501 18.7748V17.6113H135.985V19.0132V19.0094Z" fill="#FFFFFF"/>
<path d="M149.954 11.2202C149.812 10.0625 149.256 8.98945 148.418 8.19524C148.279 8.06255 148.131 7.93755 147.977 7.82217C147.824 7.70487 147.662 7.59718 147.495 7.49911C145.879 6.5549 143.66 6.63951 141.906 7.10873C141.728 7.15488 141.553 7.21066 141.378 7.27412C141.262 7.3145 141.147 7.35873 141.033 7.40488C140.862 7.47411 140.693 7.5491 140.526 7.63179H140.524C140.378 7.70295 140.229 7.78179 140.087 7.86064C139.785 8.03371 139.493 8.22601 139.214 8.43562C139.158 8.47792 138.981 8.59331 138.816 8.7183C138.797 8.73369 138.776 8.74908 138.756 8.76446C138.716 8.79523 138.678 8.82407 138.645 8.85484C138.628 8.87023 138.612 8.88561 138.599 8.89907C138.583 8.91253 138.57 8.92599 138.558 8.93945C138.522 8.97983 138.503 9.01253 138.503 9.03753C138.503 9.03753 136.426 10.4606 135.987 15.0893H138.503C138.503 13.8547 138.889 12.7124 139.549 11.774C139.745 11.5048 139.951 11.2548 140.187 11.0221C141.408 9.79712 143.124 9.22021 144.839 9.33944C144.881 9.34137 144.922 9.34521 144.964 9.3529C145.02 9.35675 145.076 9.36444 145.131 9.37598C145.247 9.39329 145.358 9.41828 145.47 9.45097C145.493 9.45482 145.514 9.46251 145.537 9.46828C145.566 9.4779 145.595 9.48559 145.624 9.49713C145.693 9.52021 145.762 9.54521 145.827 9.57405C145.852 9.58367 145.876 9.59328 145.899 9.60674C145.966 9.63558 146.029 9.66635 146.093 9.70289C146.168 9.74327 146.243 9.7875 146.31 9.83558C146.452 9.92981 146.583 10.0356 146.7 10.1548C147.181 10.624 147.477 11.2682 147.477 12.0163C147.477 12.0586 147.477 12.1009 147.475 12.1432C147.472 12.2028 147.466 12.2663 147.462 12.3259C147.456 12.3855 147.447 12.4432 147.435 12.5047C147.427 12.5451 147.422 12.5874 147.416 12.6278C147.391 12.7509 147.36 12.8682 147.325 12.9817C147.285 13.097 147.241 13.2105 147.193 13.3201C147.141 13.4297 147.085 13.5336 147.024 13.6336C146.939 13.7701 146.845 13.8989 146.743 14.0162C146.691 14.0759 146.639 14.1335 146.583 14.1893L146.543 14.2297C146.481 14.2893 146.416 14.3451 146.349 14.3989C146.325 14.4182 146.302 14.4355 146.281 14.4528C146.214 14.5066 146.143 14.5528 146.072 14.597C146.058 14.6066 146.043 14.6143 146.029 14.6239C145.562 14.9239 145.008 15.0912 144.412 15.0912H138.506V17.6104H144.412C145.27 17.6104 146.081 17.4181 146.808 17.0738C146.977 16.9931 147.139 16.9046 147.299 16.8085C147.399 16.7489 147.497 16.6835 147.595 16.6162C147.881 16.4143 148.15 16.1873 148.397 15.9373C148.437 15.895 148.479 15.8527 148.52 15.8104C148.599 15.7239 148.674 15.6354 148.749 15.545C148.822 15.4508 148.893 15.3585 148.962 15.2643C149.062 15.1201 149.158 14.9701 149.247 14.8162C149.725 13.9912 150 13.0355 150 12.0144V11.8471C150 11.6355 149.987 11.4259 149.96 11.2163L149.954 11.2202Z" fill="#FFFFFF"/>
<path d="M130.721 7.61983C130.34 7.38137 129.928 7.19484 129.5 7.06407C129.044 6.92561 128.579 6.88523 128.102 6.85446C127.104 6.78908 126.102 6.81984 125.102 6.8583C124.227 6.891 123.294 7.29868 122.673 7.91982C122.631 7.95828 122.59 7.99866 122.55 8.04097C121.861 8.74864 121.438 9.71207 121.438 10.7774C121.438 9.66208 120.973 8.65441 120.225 7.94097C120.181 7.89674 120.136 7.85443 120.088 7.81405C119.394 7.23137 118.575 6.90062 117.669 6.85062C117.538 6.84292 117.41 6.83908 117.279 6.83715C116.769 6.82562 116.258 6.82177 115.746 6.82369C115.294 6.82754 114.854 6.82754 114.415 6.95061C113.902 7.09676 113.429 7.36598 113.04 7.73136C112.965 7.80059 112.894 7.87367 112.827 7.95059C112.575 8.23135 112.369 8.55826 112.223 8.91402L111.925 6.82369H109.637V24.7213H112.223V12.962C112.223 11.5255 113.179 10.0217 114.581 9.57746C115.021 9.43708 115.487 9.39862 115.946 9.39478C116.369 9.39285 116.829 9.38324 117.246 9.45439C117.942 9.57169 118.581 9.94476 119.065 10.4524C119.704 11.1236 120.085 12.0351 120.085 12.962V15.1658C120.085 15.1658 120.085 24.7213 120.086 24.7213H122.673V12.962C122.673 11.562 123.546 10.1909 124.846 9.64862C125.252 9.47939 125.669 9.41209 126.104 9.41593C126.982 9.42362 127.857 9.35632 128.655 9.789C129.29 10.1332 129.805 10.6832 130.132 11.3255C130.39 11.8312 130.532 12.3947 130.532 12.962V24.7213H133.119V11.9543C133.119 10.1255 132.159 8.52365 130.717 7.61983H130.721Z" fill="#FFFFFF"/>
<path d="M49.6282 7.70941C49.5244 7.63441 49.4167 7.56711 49.3052 7.50172C47.6898 6.55752 45.4706 6.64213 43.7168 7.11135C43.538 7.15942 43.363 7.21519 43.1861 7.27673C43.0707 7.31712 42.9553 7.36134 42.8419 7.4075C42.6707 7.47672 42.5015 7.55172 42.3323 7.63441C42.1861 7.70556 42.038 7.78441 41.8957 7.86325C40.9208 8.40362 40.0535 9.14975 39.3997 10.0555C38.7035 11.0209 38.3074 12.2112 38.0593 13.365C38.0343 13.4843 38.0093 13.6035 37.9882 13.7246C37.7843 14.8169 37.7959 15.913 37.7651 17.0168C37.7324 18.1899 37.7074 19.5264 38.0382 20.6591C38.1862 21.1514 38.3978 21.6148 38.6651 22.0398C38.692 22.0821 38.717 22.1225 38.7458 22.1648C38.8093 22.2648 38.8804 22.3629 38.9535 22.4552C38.9997 22.5205 39.0497 22.5821 39.0997 22.6417C39.1516 22.7071 39.2054 22.7686 39.2631 22.8302C39.3285 22.9052 39.3958 22.9763 39.4689 23.0475C39.5323 23.1128 39.5997 23.1744 39.665 23.2359C39.7285 23.2917 39.79 23.3474 39.8554 23.4013C40.7727 24.159 41.8727 24.584 43.0573 24.6859C44.1995 24.7839 45.3649 24.7186 46.5091 24.7186C47.3475 24.7186 48.134 24.484 48.8033 24.0763C48.909 24.0109 49.0129 23.9417 49.1129 23.8667C49.2148 23.7917 49.3129 23.7147 49.4071 23.6282C49.484 23.5647 49.5571 23.4955 49.6282 23.4224L49.8648 24.7186H52.2147V0H49.6282V7.70941ZM49.6282 16.4496V20.9091C49.4686 21.0706 49.2956 21.2187 49.1129 21.3514C49.0129 21.4263 48.909 21.4975 48.8033 21.561C48.134 21.9706 47.3475 22.2033 46.5091 22.2033H44.5803C44.0245 22.2033 43.463 22.209 42.915 22.0936C42.3419 21.9725 41.8534 21.6975 41.4227 21.3014C41.3554 21.2398 41.29 21.1744 41.2285 21.109C40.8919 20.7475 40.6342 20.3129 40.4804 19.8437C40.2919 19.2706 40.3246 18.6533 40.3112 18.0553C40.2958 17.3803 40.2939 16.7034 40.3054 16.0265C40.3169 15.2457 40.2919 14.4477 40.4823 13.6862C41.0227 11.5266 42.8034 9.87473 44.988 9.44205C45.7283 9.2959 46.5418 9.27667 47.2918 9.36513C48.5898 9.51898 49.6263 10.5016 49.6263 11.8516V16.4457L49.6282 16.4496Z" fill="#FFFFFF"/>
</svg>
